<svg xmlns="http://www.w3.org/2000/svg" viewBox="0 0 320 180" preserveAspectRatio="xMidYMid slice">
  <rect width="320" height="180" fill="#e9dfcc"/>
  <circle cx="232" cy="62" r="26" fill="#c9a27a"/>
  <path d="M0 132 L60 96 L104 118 L150 84 L206 120 L262 92 L320 116 V180 H0 Z" fill="#b8a78e"/>
  <g fill="#6e5a47">
    <rect x="44" y="108" width="18" height="48"/><rect x="66" y="92" width="14" height="64"/>
    <rect x="84" y="118" width="22" height="38"/><rect x="110" y="72" width="16" height="84"/>
    <rect x="130" y="100" width="20" height="56"/><rect x="154" y="112" width="14" height="44"/>
    <path d="M114 72 L118 58 L122 72 Z"/>
  </g>
  <rect y="154" width="320" height="26" fill="#8a2a17" opacity=".82"/>
  <g stroke="#e9dfcc" stroke-width="2" opacity=".5"><path d="M0 162 H320 M0 170 H320"/></g>
</svg>
