<svg xmlns="http://www.w3.org/2000/svg" viewBox="0 0 320 180" preserveAspectRatio="xMidYMid slice">
  <rect width="320" height="180" fill="#e6e0d2"/>
  <circle cx="160" cy="90" r="64" fill="#6f8796"/>
  <g fill="#b8a78e">
    <path d="M118 52 C132 44 150 50 148 64 C146 76 128 74 124 88 C120 100 108 96 104 84 C100 70 106 58 118 52 Z"/>
    <path d="M168 40 C186 38 206 50 214 66 C204 70 192 64 184 72 C176 80 164 70 162 58 C160 48 162 42 168 40 Z"/>
    <path d="M170 98 C184 94 200 104 198 122 C196 138 180 146 172 136 C164 126 160 104 170 98 Z"/>
  </g>
  <ellipse cx="160" cy="90" rx="30" ry="64" fill="none" stroke="#e6e0d2" stroke-width="1.5" stroke-opacity=".55"/>
  <path d="M160 26 V154 M96 90 H224 M104 60 H216 M104 120 H216" fill="none" stroke="#e6e0d2" stroke-width="1.5" stroke-opacity=".55"/>
  <circle cx="160" cy="90" r="64" fill="none" stroke="#3f362e" stroke-width="2"/>
  <path d="M60 150 C100 138 130 162 160 156 S230 138 262 150" fill="none" stroke="#8a2a17" stroke-width="3" stroke-linecap="round"/>
</svg>
